#N canvas 279 3 1181 725 10;
#X msg 247 179 start;
#X msg 193 82 stop;
#X obj 278 311 readsf~ 2;
#X obj 343 395 bng 15 250 50 0 empty empty empty 17 7 0 10 -262144
-1 -1;
#X obj 90 491 dac~ 1 2;
#X obj 361 106 hradio 15 1 0 10 empty empty empty 0 -8 0 10 -262144
-1 -1 3;
#X msg 621 193 start;
#X msg 567 96 stop;
#X obj 652 325 readsf~ 2;
#X obj 717 409 bng 15 250 50 0 empty empty empty 17 7 0 10 -262144
-1 -1;
#X obj 859 105 hradio 15 1 0 10 empty empty empty 0 -8 0 10 -262144
-1 -1 1;
#X obj 310 10 r sensor1;
#X obj 752 31 r sensor2;
#X msg 233 623 start;
#X msg 179 526 stop;
#X obj 264 755 readsf~ 2;
#X obj 329 839 bng 15 250 50 0 empty empty empty 17 7 0 10 -262144
-1 -1;
#X obj 409 534 hradio 15 1 0 11 empty empty empty 0 -8 0 10 -262144
-1 -1 3;
#X obj 343 442 r sensor3;
#X msg 336 63 bang;
#X msg 770 59 bang;
#X msg 399 470 bang;
#X obj 78 274 bng 15 250 50 0 empty empty empty 17 7 0 10 -262144 -1
-1;
#X obj 59 215 spigot;
#X obj 43 134 nbx 5 14 -1e+037 1e+037 0 0 empty empty empty 0 -8 0
10 -262144 -1 -1 0 256;
#X obj 126 157 nbx 5 14 -1e+037 1e+037 0 0 empty empty empty 0 -8 0
10 -262144 -1 -1 0 256;
#X obj 50 351 nbx 5 14 -1e+037 1e+037 0 0 empty empty empty 0 -8 0
10 -262144 -1 -1 0 256;
#X msg 562 703 open aria8.wav;
#X msg 697 756 open aria9.wav;
#X msg 756 777 open aria10.wav;
#X obj 35 56 delay 100;
#X obj 33 22 loadbang;
#X msg 38 94 \; pd dsp 1;
#X obj 582 12 loadbang;
#X obj 497 35 delay 150;
#X msg 388 201 open aria1ed1.wav;
#X msg 385 241 open aria1ed2.wav;
#X msg 390 281 open aria2ed.wav;
#X msg 394 307 open aria3ed1.wav;
#X msg 396 334 open aria3ed2.wav;
#X msg 393 357 open aria3ed3.wav;
#X msg 393 381 open aria4ed1.wav;
#X msg 455 407 open aria4ed2.wav;
#X obj 453 62 random 10;
#X msg 457 436 open aria4ed3.wav;
#X msg 496 466 open aria5ed1.wav;
#X obj 416 141 route 0 1 2 3 4 5 6 7 8;
#X obj 825 75 random 10;
#X obj 819 135 route 0 1 2 3 4 5 6 7 8;
#X msg 761 215 open aguac.wav;
#X msg 759 255 open amb1ed.wav;
#X msg 764 295 open amb3ed.wav;
#X msg 768 325 open amb5ed.wav;
#X msg 770 357 open baby.wav;
#X msg 773 384 open chuv4.wav;
#X msg 771 412 open lesenfant.wav;
#X msg 937 473 open pass4ro.wav;
#X msg 852 499 open pedr4.wav;
#X msg 803 529 open s2passaros15s.wav;
#X obj 439 506 random 11;
#X obj 431 565 route 0 1 2 3 4 5 6 7 8 9;
#X msg 385 593 open aria5ed2.wav;
#X msg 440 617 open aria6ed.wav;
#X msg 458 643 open aria7ed.wav;
#X msg 516 670 open textura.wav;
#X msg 625 734 open tintaspray.wav;
#X msg 983 806 open trovoada1.wav;
#X msg 993 729 open trovoada2.wav;
#X msg 960 640 open ambA7.wav;
#X connect 0 0 2 0;
#X connect 1 0 2 0;
#X connect 2 0 4 0;
#X connect 2 2 3 0;
#X connect 5 0 46 0;
#X connect 6 0 8 0;
#X connect 7 0 8 0;
#X connect 8 0 4 0;
#X connect 8 2 9 0;
#X connect 10 0 48 0;
#X connect 11 0 19 0;
#X connect 12 0 20 0;
#X connect 13 0 15 0;
#X connect 14 0 15 0;
#X connect 15 0 4 1;
#X connect 15 2 16 0;
#X connect 17 0 60 0;
#X connect 18 0 21 0;
#X connect 19 0 43 0;
#X connect 20 0 47 0;
#X connect 21 0 59 0;
#X connect 23 0 22 0;
#X connect 23 0 26 0;
#X connect 24 0 23 0;
#X connect 25 0 23 1;
#X connect 27 0 15 0;
#X connect 27 0 13 0;
#X connect 28 0 15 0;
#X connect 28 0 13 0;
#X connect 29 0 15 0;
#X connect 29 0 13 0;
#X connect 30 0 32 0;
#X connect 31 0 30 0;
#X connect 33 0 34 0;
#X connect 34 0 43 0;
#X connect 35 0 2 0;
#X connect 35 0 0 0;
#X connect 36 0 2 0;
#X connect 36 0 0 0;
#X connect 37 0 2 0;
#X connect 37 0 0 0;
#X connect 38 0 2 0;
#X connect 38 0 0 0;
#X connect 39 0 2 0;
#X connect 39 0 0 0;
#X connect 40 0 2 0;
#X connect 40 0 0 0;
#X connect 41 0 2 0;
#X connect 41 0 0 0;
#X connect 42 0 2 0;
#X connect 42 0 0 0;
#X connect 43 0 5 0;
#X connect 44 0 2 0;
#X connect 44 0 0 0;
#X connect 45 0 2 0;
#X connect 45 0 0 0;
#X connect 46 0 35 0;
#X connect 46 1 36 0;
#X connect 46 2 37 0;
#X connect 46 3 38 0;
#X connect 46 4 39 0;
#X connect 46 5 40 0;
#X connect 46 6 41 0;
#X connect 46 7 42 0;
#X connect 46 8 44 0;
#X connect 46 9 45 0;
#X connect 47 0 10 0;
#X connect 48 0 49 0;
#X connect 48 1 50 0;
#X connect 48 2 51 0;
#X connect 48 3 52 0;
#X connect 48 4 53 0;
#X connect 48 5 54 0;
#X connect 48 6 55 0;
#X connect 48 7 56 0;
#X connect 48 8 57 0;
#X connect 48 9 58 0;
#X connect 49 0 8 0;
#X connect 49 0 6 0;
#X connect 50 0 8 0;
#X connect 50 0 6 0;
#X connect 51 0 8 0;
#X connect 51 0 6 0;
#X connect 52 0 8 0;
#X connect 52 0 6 0;
#X connect 53 0 8 0;
#X connect 53 0 6 0;
#X connect 54 0 8 0;
#X connect 54 0 6 0;
#X connect 55 0 8 0;
#X connect 55 0 6 0;
#X connect 56 0 8 0;
#X connect 56 0 6 0;
#X connect 57 0 8 0;
#X connect 57 0 6 0;
#X connect 58 0 8 0;
#X connect 58 0 6 0;
#X connect 59 0 17 0;
#X connect 60 0 61 0;
#X connect 60 1 62 0;
#X connect 60 2 63 0;
#X connect 60 3 64 0;
#X connect 60 4 27 0;
#X connect 60 5 65 0;
#X connect 60 6 28 0;
#X connect 60 7 29 0;
#X connect 60 8 66 0;
#X connect 60 9 67 0;
#X connect 60 10 68 0;
#X connect 61 0 15 0;
#X connect 61 0 13 0;
#X connect 62 0 15 0;
#X connect 62 0 13 0;
#X connect 63 0 15 0;
#X connect 63 0 13 0;
#X connect 64 0 15 0;
#X connect 64 0 13 0;
#X connect 65 0 15 0;
#X connect 65 0 13 0;
#X connect 66 0 15 0;
#X connect 66 0 13 0;
#X connect 67 0 15 0;
#X connect 67 0 13 0;
#X connect 68 0 15 0;
#X connect 68 0 13 0;
