#N canvas 86 145 1023 686 10;
#X obj 25 18 tgl 15 0 empty empty empty 17 7 0 10 -262144 -1 -1 0 1
;
#X msg 25 38 \; pd dsp \$1;
#X msg 247 179 start;
#X msg 193 82 stop;
#X obj 278 311 readsf~ 2;
#X obj 343 395 bng 15 250 50 0 empty empty empty 17 7 0 10 -262144
-1 -1;
#X obj 90 491 dac~ 1 2;
#X obj 485 91 hradio 15 1 0 3 empty empty empty 0 -8 0 10 -262144 -1
-1 0;
#X obj 445 121 route 0 1;
#X obj 453 62 random 3;
#X msg 621 193 start;
#X msg 567 96 stop;
#X obj 652 325 readsf~ 2;
#X obj 717 409 bng 15 250 50 0 empty empty empty 17 7 0 10 -262144
-1 -1;
#X obj 859 105 hradio 15 1 0 3 empty empty empty 0 -8 0 10 -262144
-1 -1 0;
#X obj 819 135 route 0 1;
#X obj 827 76 random 3;
#X obj 378 17 r sensor1;
#X obj 752 31 r sensor2;
#X obj 622 164 r bla2;
#X obj 922 252 s bla2;
#X obj 548 238 s bla1;
#X obj 248 150 r bla1;
#X msg 233 623 start;
#X msg 179 526 stop;
#X obj 264 755 readsf~ 2;
#X obj 329 839 bng 15 250 50 0 empty empty empty 17 7 0 10 -262144
-1 -1;
#X obj 471 535 hradio 15 1 0 3 empty empty empty 0 -8 0 10 -262144
-1 -1 0;
#X obj 431 565 route 0 1;
#X obj 439 506 random 3;
#X msg 607 637 start;
#X msg 553 540 stop;
#X obj 638 769 readsf~ 2;
#X obj 703 853 bng 15 250 50 0 empty empty empty 17 7 0 10 -262144
-1 -1;
#X obj 845 549 hradio 15 1 0 3 empty empty empty 0 -8 0 10 -262144
-1 -1 0;
#X obj 805 579 route 0 1;
#X obj 813 520 random 3;
#X obj 395 430 r sensor3;
#X obj 738 442 r sensor4;
#X obj 534 682 s bla3;
#X obj 908 696 s bla4;
#X obj 234 594 r bla3;
#X obj 608 608 r bla4;
#X msg 377 72 bang;
#X msg 770 59 bang;
#X msg 399 470 bang;
#X msg 772 494 bang;
#X obj 78 274 bng 15 250 50 0 empty empty empty 17 7 0 10 -262144 -1
-1;
#X obj 59 215 spigot;
#X obj 43 134 nbx 5 14 -1e+037 1e+037 0 0 empty empty empty 0 -8 0
10 -262144 -1 -1 0 256;
#X obj 126 157 nbx 5 14 -1e+037 1e+037 0 0 empty empty empty 0 -8 0
10 -262144 -1 -1 0 256;
#X obj 50 351 nbx 5 14 -1e+037 1e+037 0 0 empty empty empty 0 -8 0
10 -262144 -1 -1 0 256;
#X msg 385 241 open voz1.wav;
#X msg 759 255 open voz1.wav;
#X msg 390 281 open s2agua15.wav;
#X msg 764 295 open s2agua15.wav;
#X msg 373 645 open pedra1.wav;
#X msg 387 201 open pedra1.wav;
#X msg 761 215 open pedra1.wav;
#X msg 747 659 open pedra1.wav;
#X msg 745 699 open voz1.wav;
#X msg 371 685 open voz1.wav;
#X msg 376 725 open s2agua15.wav;
#X msg 750 739 open s2agua15.wav;
#X connect 0 0 1 0;
#X connect 2 0 4 0;
#X connect 3 0 4 0;
#X connect 4 0 6 0;
#X connect 4 2 5 0;
#X connect 7 0 8 0;
#X connect 8 0 57 0;
#X connect 8 1 52 0;
#X connect 8 2 54 0;
#X connect 9 0 7 0;
#X connect 10 0 12 0;
#X connect 11 0 12 0;
#X connect 12 0 6 0;
#X connect 12 2 13 0;
#X connect 14 0 15 0;
#X connect 15 0 58 0;
#X connect 15 1 53 0;
#X connect 15 2 55 0;
#X connect 16 0 14 0;
#X connect 17 0 43 0;
#X connect 18 0 44 0;
#X connect 19 0 10 0;
#X connect 22 0 2 0;
#X connect 23 0 25 0;
#X connect 24 0 25 0;
#X connect 25 0 6 1;
#X connect 25 2 26 0;
#X connect 27 0 28 0;
#X connect 28 0 56 0;
#X connect 28 1 61 0;
#X connect 28 2 62 0;
#X connect 29 0 27 0;
#X connect 30 0 32 0;
#X connect 31 0 32 0;
#X connect 32 0 6 1;
#X connect 32 2 33 0;
#X connect 34 0 35 0;
#X connect 35 0 59 0;
#X connect 35 1 60 0;
#X connect 35 2 63 0;
#X connect 36 0 34 0;
#X connect 37 0 45 0;
#X connect 38 0 46 0;
#X connect 41 0 23 0;
#X connect 42 0 30 0;
#X connect 43 0 9 0;
#X connect 44 0 16 0;
#X connect 45 0 29 0;
#X connect 46 0 36 0;
#X connect 48 0 47 0;
#X connect 48 0 51 0;
#X connect 49 0 48 0;
#X connect 50 0 48 1;
#X connect 52 0 4 0;
#X connect 52 0 21 0;
#X connect 53 0 12 0;
#X connect 53 0 20 0;
#X connect 54 0 4 0;
#X connect 54 0 21 0;
#X connect 55 0 12 0;
#X connect 55 0 20 0;
#X connect 56 0 25 0;
#X connect 56 0 39 0;
#X connect 57 0 4 0;
#X connect 57 0 21 0;
#X connect 58 0 12 0;
#X connect 58 0 20 0;
#X connect 59 0 32 0;
#X connect 59 0 40 0;
#X connect 60 0 32 0;
#X connect 60 0 40 0;
#X connect 61 0 25 0;
#X connect 61 0 39 0;
#X connect 62 0 25 0;
#X connect 62 0 39 0;
#X connect 63 0 32 0;
#X connect 63 0 40 0;
