#N canvas 74 22 1091 751 10;
#X msg 247 179 start;
#X msg 193 82 stop;
#X obj 278 311 readsf~ 2;
#X obj 343 395 bng 15 250 50 0 empty empty empty 17 7 0 10 -262144
-1 -1;
#X obj 90 491 dac~ 1 2;
#X obj 429 97 hradio 15 1 0 8 empty empty empty 0 -8 0 10 -262144 -1
-1 0;
#X msg 621 193 start;
#X msg 567 96 stop;
#X obj 652 325 readsf~ 2;
#X obj 717 409 bng 15 250 50 0 empty empty empty 17 7 0 10 -262144
-1 -1;
#X obj 859 105 hradio 15 1 0 7 empty empty empty 0 -8 0 10 -262144
-1 -1 0;
#X obj 378 17 r sensor1;
#X obj 752 31 r sensor2;
#X obj 622 164 r bla2;
#X obj 922 252 s bla2;
#X obj 548 238 s bla1;
#X obj 248 150 r bla1;
#X msg 233 623 start;
#X msg 179 526 stop;
#X obj 264 755 readsf~ 2;
#X obj 329 839 bng 15 250 50 0 empty empty empty 17 7 0 10 -262144
-1 -1;
#X obj 409 534 hradio 15 1 0 8 empty empty empty 0 -8 0 10 -262144
-1 -1 0;
#X obj 395 430 r sensor3;
#X obj 534 682 s bla3;
#X obj 234 594 r bla3;
#X msg 377 72 bang;
#X msg 770 59 bang;
#X msg 399 470 bang;
#X obj 78 274 bng 15 250 50 0 empty empty empty 17 7 0 10 -262144 -1
-1;
#X obj 59 215 spigot;
#X obj 43 134 nbx 5 14 -1e+037 1e+037 0 0 empty empty empty 0 -8 0
10 -262144 -1 -1 0 256;
#X obj 126 157 nbx 5 14 -1e+037 1e+037 0 0 empty empty empty 0 -8 0
10 -262144 -1 -1 0 256;
#X obj 50 351 nbx 5 14 -1e+037 1e+037 0 0 empty empty empty 0 -8 0
10 -262144 -1 -1 0 256;
#X msg 761 215 open s2agua15.wav;
#X msg 385 241 open s2chuva30sec.wav;
#X msg 390 281 open s2passaros15s.wav;
#X msg 759 255 open s2pedragua2sec.wav;
#X msg 764 295 open trovoada17.wav;
#X msg 373 645 open pedra1.wav;
#X msg 388 201 open amb1.wav;
#X msg 394 307 open amb2.wav;
#X msg 396 334 open aria1.wav;
#X msg 768 325 open aria2.wav;
#X msg 770 357 open amb3.wav;
#X msg 393 357 open amb4.wav;
#X msg 773 384 open aria3.wav;
#X msg 393 381 open aria4.wav;
#X msg 771 412 open aria5.wav;
#X msg 371 685 open amb5.wav;
#X msg 376 725 open aria6.wav;
#X msg 375 752 open aria7.wav;
#X msg 374 783 open aria8.wav;
#X msg 375 813 open s2bebe5.wav;
#X msg 375 840 open aria9.wav;
#X msg 375 864 open aria10.wav;
#X msg 455 407 open s2passos20.wav;
#X obj 453 62 random 8;
#X obj 445 121 route 0 1 2 3 4 5 6;
#X obj 825 76 random 7;
#X obj 819 135 route 0 1 2 3 4 5;
#X obj 439 506 random 8;
#X obj 431 565 route 0 1 2 3 4 5 6;
#X obj 35 56 delay 100;
#X obj 33 22 loadbang;
#X msg 38 94 \; pd dsp 1;
#X obj 582 12 loadbang;
#X obj 497 35 delay 150;
#X connect 0 0 2 0;
#X connect 1 0 2 0;
#X connect 2 0 4 0;
#X connect 2 2 3 0;
#X connect 5 0 57 0;
#X connect 6 0 8 0;
#X connect 7 0 8 0;
#X connect 8 0 4 0;
#X connect 8 2 9 0;
#X connect 10 0 59 0;
#X connect 11 0 25 0;
#X connect 12 0 26 0;
#X connect 13 0 6 0;
#X connect 16 0 0 0;
#X connect 17 0 19 0;
#X connect 18 0 19 0;
#X connect 19 0 4 1;
#X connect 19 2 20 0;
#X connect 21 0 61 0;
#X connect 22 0 27 0;
#X connect 24 0 17 0;
#X connect 25 0 56 0;
#X connect 26 0 58 0;
#X connect 27 0 60 0;
#X connect 29 0 28 0;
#X connect 29 0 32 0;
#X connect 30 0 29 0;
#X connect 31 0 29 1;
#X connect 33 0 8 0;
#X connect 33 0 14 0;
#X connect 34 0 2 0;
#X connect 34 0 15 0;
#X connect 35 0 2 0;
#X connect 35 0 15 0;
#X connect 36 0 8 0;
#X connect 36 0 14 0;
#X connect 37 0 8 0;
#X connect 37 0 14 0;
#X connect 38 0 19 0;
#X connect 38 0 23 0;
#X connect 39 0 2 0;
#X connect 39 0 15 0;
#X connect 40 0 15 0;
#X connect 40 0 2 0;
#X connect 41 0 15 0;
#X connect 41 0 2 0;
#X connect 42 0 8 0;
#X connect 42 0 14 0;
#X connect 43 0 8 0;
#X connect 43 0 14 0;
#X connect 44 0 15 0;
#X connect 44 0 2 0;
#X connect 45 0 8 0;
#X connect 45 0 14 0;
#X connect 46 0 15 0;
#X connect 46 0 2 0;
#X connect 47 0 8 0;
#X connect 47 0 14 0;
#X connect 48 0 19 0;
#X connect 48 0 23 0;
#X connect 49 0 19 0;
#X connect 49 0 23 0;
#X connect 50 0 23 0;
#X connect 50 0 19 0;
#X connect 51 0 23 0;
#X connect 51 0 19 0;
#X connect 52 0 23 0;
#X connect 52 0 19 0;
#X connect 53 0 19 0;
#X connect 54 0 23 0;
#X connect 54 0 19 0;
#X connect 55 0 15 0;
#X connect 55 0 2 0;
#X connect 56 0 5 0;
#X connect 57 0 39 0;
#X connect 57 1 34 0;
#X connect 57 2 35 0;
#X connect 57 3 40 0;
#X connect 57 4 41 0;
#X connect 57 5 44 0;
#X connect 57 6 46 0;
#X connect 57 7 55 0;
#X connect 58 0 10 0;
#X connect 59 0 33 0;
#X connect 59 1 36 0;
#X connect 59 2 37 0;
#X connect 59 3 42 0;
#X connect 59 4 43 0;
#X connect 59 5 45 0;
#X connect 59 6 47 0;
#X connect 60 0 21 0;
#X connect 61 0 38 0;
#X connect 61 1 48 0;
#X connect 61 2 49 0;
#X connect 61 3 50 0;
#X connect 61 4 51 0;
#X connect 61 5 52 0;
#X connect 61 6 53 0;
#X connect 61 7 54 0;
#X connect 62 0 64 0;
#X connect 63 0 62 0;
#X connect 65 0 66 0;
#X connect 66 0 56 0;
