#N canvas 141 151 1071 772 10;
#N canvas 520 253 450 300 (subpatch) 0;
#X array sample 36864 float 2;
#X coords 0 1 36864 -1 200 140 1 0 0;
#X restore -38 -2 graph;
#X msg -30 593 \; pd dsp \$1;
#X obj -32 549 tgl 15 0 empty empty empty 17 7 0 10 -262144 -1 -1 0
1;
#X obj 281 299 soundfiler;
#X obj 279 481 tabread4~ sample;
#X obj 279 449 line~;
#X obj 507 36 bng 15 250 50 0 empty empty empty 17 7 0 10 -262144 -1
-1;
#X floatatom 498 113 5 0 0 0 - - -;
#X obj 461 154 hradio 15 1 0 3 empty empty empty 0 -8 0 10 -262144
-1 -1 0;
#X obj 514 685 dac~;
#X obj 513 297 soundfiler;
#X obj 515 630 *~;
#X obj 573 608 line~;
#X floatatom 571 535 5 0 0 0 - - -;
#X msg 571 562 \$1 20;
#X obj 511 447 line~;
#N canvas 0 0 450 300 (subpatch) 0;
#X array sample2 54080 float 2;
#X coords 0 1 54080 -1 200 140 1;
#X restore -37 156 graph;
#X msg 282 247 read -resize SpeechOn.wav sample;
#X obj 511 479 tabread4~ sample2;
#X msg 514 245 read -resize chimes.wav sample2;
#N canvas 0 0 450 300 (subpatch) 0;
#X array sampl3 47104 float 2;
#X coords 0 1 47104 -1 200 140 1;
#X restore -36 313 graph;
#X obj 746 297 soundfiler;
#X obj 740 443 line~;
#X obj 498 72 random 3;
#X obj 457 185 route 0 1 2;
#X obj 742 478 tabread4~ sampl3;
#X obj 571 509 ii 1;
#X msg 747 246 read -resize SpeechOff.wav sampl3;
#X obj 324 337 expr (44100 / $f1) * 1000;
#X obj 558 335 expr (44100 / $f1) * 1000;
#X obj 785 337 expr (44100 / $f1) * 1000;
#X obj 740 383 pack \$1 \$2;
#X msg 740 411 0 \, \$1 \$2;
#X obj 511 379 pack \$1 \$2;
#X obj 277 384 pack \$1 \$2;
#X msg 511 407 0 \, \$1 \$2;
#X msg 279 412 0 \, \$1 \$2;
#X connect 2 0 1 0;
#X connect 3 0 28 0;
#X connect 3 0 34 0;
#X connect 4 0 11 0;
#X connect 5 0 4 0;
#X connect 6 0 23 0;
#X connect 7 0 8 0;
#X connect 8 0 24 0;
#X connect 10 0 29 0;
#X connect 10 0 33 0;
#X connect 11 0 9 0;
#X connect 12 0 11 1;
#X connect 13 0 14 0;
#X connect 14 0 12 0;
#X connect 15 0 18 0;
#X connect 17 0 3 0;
#X connect 18 0 11 0;
#X connect 19 0 10 0;
#X connect 21 0 30 0;
#X connect 21 0 31 0;
#X connect 22 0 25 0;
#X connect 23 0 7 0;
#X connect 24 0 17 0;
#X connect 24 1 19 0;
#X connect 24 2 27 0;
#X connect 25 0 11 0;
#X connect 26 0 13 0;
#X connect 27 0 21 0;
#X connect 28 0 34 1;
#X connect 29 0 33 1;
#X connect 30 0 31 1;
#X connect 31 0 32 0;
#X connect 32 0 22 0;
#X connect 33 0 35 0;
#X connect 34 0 36 0;
#X connect 35 0 15 0;
#X connect 36 0 5 0;
